<svg width="144" height="144" viewBox="0 0 144 144" fill="none" xmlns="http://www.w3.org/2000/svg">
<path d="M4.5 125.596H139.5C140.693 125.596 141.838 125.122 142.682 124.278C143.526 123.434 144 122.29 144 121.096V22.9062C144 21.7127 143.526 20.5682 142.682 19.7243C141.838 18.8804 140.693 18.4062 139.5 18.4062H4.5C3.30653 18.4062 2.16193 18.8804 1.31802 19.7243C0.474106 20.5682 0 21.7127 0 22.9062V121.096C0 122.29 0.474106 123.434 1.31802 124.278C2.16193 125.122 3.30653 125.596 4.5 125.596ZM119.475 27.4062H128.88V116.596H119.475V27.4062ZM94.905 27.4062H110.475V116.596H94.905V27.4062ZM76.5 27.4062H85.905V116.596H76.5V27.4062ZM64.215 27.4062H67.5V116.596H64.215V27.4062ZM27.405 27.4062H55.215V116.596H27.405V27.4062ZM9 27.4062H18.405V116.596H9V27.4062Z" fill="white"/>
</svg>
