<svg width="140" height="140" viewBox="0 0 140 140" fill="none" xmlns="http://www.w3.org/2000/svg">
<g clip-path="url(#clip0_16911_15221)">
<mask id="mask0_16911_15221" style="mask-type:luminance" maskUnits="userSpaceOnUse" x="0" y="0" width="140" height="140">
<path d="M140 0H0V140H140V0Z" fill="white"/>
</mask>
<g mask="url(#mask0_16911_15221)">
<path d="M65.8725 28.0615C36.9039 21.1643 16.3754 26.3815 6.82965 33.5612C2.60394 36.7393 0.179648 40.524 0 44.3319C0 49.7522 4.51746 55.0115 11.0343 57.499C4.53141 77.554 1.0757 106.905 0 128.332C0 134.875 7.175 139.999 16.3332 139.999H39.6665C40.9544 139.999 41.9997 138.956 41.9997 137.665V128.332C41.9997 127.042 40.9544 125.999 39.6665 125.999C34.5844 125.999 30.4358 120.893 30.3354 114.572L37.2818 82.1554C37.4429 81.404 37.2236 80.62 36.6961 80.0625C36.4768 79.8315 36.3229 79.575 36.1315 79.3322H42C42.7654 79.3322 43.4818 78.9565 43.9179 78.3265C44.3543 77.6965 44.4522 76.8961 44.1861 76.1797C43.1851 73.5079 44.1137 65.815 48.8575 59.7018L50.2901 60.4182C50.7894 60.6632 51.3565 60.7307 51.9001 60.5932L61.2333 58.26C62.1223 58.0382 62.799 57.3172 62.9623 56.4143L67.629 30.7475C67.8511 29.5293 67.0811 28.3486 65.8725 28.0615ZM9.6343 37.2922C15.3836 32.9686 25.6504 29.4662 39.8625 29.4662C42.7604 29.4662 45.8547 29.6458 49.0747 29.9608C49.0536 30.0869 49 30.1987 49 30.3319C49 36.6551 40.4507 41.9986 30.3332 41.9986H5.38535C6.19035 40.419 7.64176 38.7904 9.6343 37.2922ZM25.7179 113.842C25.6829 114.003 25.6665 114.169 25.6665 114.332C25.6665 122.41 30.7204 129.139 37.3332 130.436V135.332H16.3332C10.01 135.332 4.66648 132.126 4.6643 128.449C4.74359 126.892 4.83684 125.285 4.94211 123.651C8.68957 123.572 12.2875 121.89 15.0968 118.873C19.53 114.11 21.6254 106.639 21 97.9103C20.8482 94.0439 22.1878 90.4367 24.7707 87.751C26.8382 85.5996 29.6007 84.2231 32.1068 84.0388L25.7179 113.842ZM39.2025 74.6654H34.1042C33.6539 71.7907 34.2978 68.7947 35.3992 66.4032C37.2892 62.3057 40.4671 59.4896 43.916 58.6261C40.2875 64.1304 38.9175 70.3393 39.2025 74.6654ZM46.7857 53.6676C40.4786 53.3151 34.3304 57.5783 31.1639 64.45C28.7514 69.6836 28.6929 75.1018 30.7743 79.4929C27.4214 79.9969 24.0286 81.7843 21.4061 84.5119C17.9364 88.1215 16.135 92.9422 16.3404 98.1644C16.8771 105.664 15.2228 111.887 11.6807 115.69C9.85359 117.652 7.595 118.756 5.27105 118.929C6.82746 98.4397 10.3157 73.6433 16.2028 56.7662C16.4175 56.1501 16.3661 55.4736 16.0582 54.8972C15.7503 54.3233 15.2157 53.9008 14.5835 53.7398C10.0335 52.5637 6.42605 49.7077 5.17316 46.6651H30.3335C37.9332 46.6651 44.6461 49.6798 47.5185 53.8612C47.2825 53.7679 47.04 53.6815 46.7857 53.6676ZM58.6389 54.1015L53.2722 55.4433C52.1032 50.695 48.1411 46.7004 42.5201 44.3319C49.1818 41.5272 53.5568 36.4476 53.6476 30.5162C56.5433 30.9244 59.5137 31.4215 62.6355 32.1076L58.6389 54.1015Z" fill="white"/>
<path d="M123.667 0C122.379 0 121.333 1.04289 121.333 2.33324C121.333 3.62359 122.379 4.66648 123.667 4.66648C128.539 4.66648 135.333 19.7586 135.333 44.3332C135.333 68.9079 128.539 84 123.667 84C122.379 84 121.333 85.0429 121.333 86.3332C121.333 87.6236 122.379 88.6665 123.667 88.6665C134.276 88.6665 140 65.8254 140 44.3332C140 22.8411 134.276 0 123.667 0Z" fill="white"/>
<path d="M105 9.33398C103.712 9.33398 102.667 10.3769 102.667 11.6673C102.667 12.9576 103.712 14.0008 105 14.0008C110.518 14.0008 116.666 26.4583 116.666 44.334C116.666 62.2097 110.518 74.6675 105 74.6675C103.712 74.6675 102.667 75.7104 102.667 77.0008C102.667 78.2911 103.712 79.334 105 79.334C114.312 79.334 121.333 64.2887 121.333 44.334C121.333 24.3794 114.312 9.33398 105 9.33398Z" fill="white"/>
<path d="M86.3337 18.666C85.0458 18.666 84.0005 19.7089 84.0005 20.9993C84.0005 22.2896 85.0458 23.3325 86.3337 23.3325C92.657 23.3325 98.0005 32.9482 98.0005 44.3325C98.0005 55.7168 92.6572 65.3325 86.3337 65.3325C85.0458 65.3325 84.0005 66.3754 84.0005 67.6657C84.0005 68.9561 85.0458 69.999 86.3337 69.999C95.492 69.999 102.667 58.7243 102.667 44.3322C102.667 29.9401 95.4922 18.666 86.3337 18.666Z" fill="white"/>
</g>
</g>
<defs>
<clipPath id="clip0_16911_15221">
<rect width="140" height="140" fill="white"/>
</clipPath>
</defs>
</svg>
