<svg width="140" height="140" viewBox="0 0 140 140" fill="none" xmlns="http://www.w3.org/2000/svg">
<g clip-path="url(#clip0_473_35)">
<path d="M65.8725 28.0624C36.9039 21.1652 16.3754 26.3824 6.82965 33.5621C2.60394 36.7402 0.179648 40.5249 0 44.3328C0 49.7531 4.51746 55.0124 11.0343 57.4999C4.53141 77.5549 1.0757 106.906 0 128.333C0 134.876 7.175 140 16.3332 140H39.6665C40.9544 140 41.9997 138.957 41.9997 137.666V128.333C41.9997 127.043 40.9544 126 39.6665 126C34.5844 126 30.4358 120.894 30.3354 114.573L37.2818 82.1563C37.4429 81.4049 37.2236 80.6209 36.6961 80.0634C36.4768 79.8324 36.3229 79.5759 36.1315 79.3331H42C42.7654 79.3331 43.4818 78.9574 43.9179 78.3274C44.3543 77.6974 44.4522 76.897 44.1861 76.1806C43.1851 73.5088 44.1137 65.8159 48.8575 59.7027L50.2901 60.4191C50.7894 60.6641 51.3565 60.7316 51.9001 60.5941L61.2333 58.2609C62.1223 58.0391 62.799 57.3181 62.9623 56.4152L67.629 30.7484C67.8511 29.5302 67.0811 28.3495 65.8725 28.0624ZM9.6343 37.2931C15.3836 32.9695 25.6504 29.4671 39.8625 29.4671C42.7604 29.4671 45.8547 29.6467 49.0747 29.9617C49.0536 30.0878 49 30.1996 49 30.3328C49 36.656 40.4507 41.9995 30.3332 41.9995H5.38535C6.19035 40.4199 7.64176 38.7913 9.6343 37.2931ZM25.7179 113.843C25.6829 114.004 25.6665 114.17 25.6665 114.333C25.6665 122.411 30.7204 129.14 37.3332 130.437V135.333H16.3332C10.01 135.333 4.66648 132.127 4.6643 128.45C4.74359 126.893 4.83684 125.286 4.94211 123.652C8.68957 123.573 12.2875 121.891 15.0968 118.874C19.53 114.111 21.6254 106.64 21 97.9112C20.8482 94.0448 22.1878 90.4376 24.7707 87.7519C26.8382 85.6005 29.6007 84.224 32.1068 84.0397L25.7179 113.843ZM39.2025 74.6663H34.1042C33.6539 71.7916 34.2978 68.7956 35.3992 66.4041C37.2892 62.3066 40.4671 59.4905 43.916 58.627C40.2875 64.1313 38.9175 70.3402 39.2025 74.6663ZM46.7857 53.6685C40.4786 53.316 34.3304 57.5792 31.1639 64.4509C28.7514 69.6845 28.6929 75.1027 30.7743 79.4938C27.4214 79.9978 24.0286 81.7852 21.4061 84.5128C17.9364 88.1224 16.135 92.9431 16.3404 98.1653C16.8771 105.665 15.2228 111.888 11.6807 115.691C9.85359 117.653 7.595 118.757 5.27105 118.93C6.82746 98.4406 10.3157 73.6442 16.2028 56.7671C16.4175 56.151 16.3661 55.4745 16.0582 54.8981C15.7503 54.3242 15.2157 53.9017 14.5835 53.7407C10.0335 52.5646 6.42605 49.7086 5.17316 46.666H30.3335C37.9332 46.666 44.6461 49.6807 47.5185 53.8621C47.2825 53.7688 47.04 53.6824 46.7857 53.6685ZM58.6389 54.1024L53.2722 55.4442C52.1032 50.6959 48.1411 46.7013 42.5201 44.3328C49.1818 41.5281 53.5568 36.4485 53.6476 30.5171C56.5433 30.9253 59.5137 31.4224 62.6355 32.1085L58.6389 54.1024Z" fill="black"/>
<path d="M123.667 0C122.379 0 121.333 1.04289 121.333 2.33324C121.333 3.62359 122.379 4.66648 123.667 4.66648C128.539 4.66648 135.333 19.7586 135.333 44.3332C135.333 68.9079 128.539 84 123.667 84C122.379 84 121.333 85.0429 121.333 86.3332C121.333 87.6236 122.379 88.6665 123.667 88.6665C134.276 88.6665 140 65.8254 140 44.3332C140 22.8411 134.276 0 123.667 0Z" fill="black"/>
<path d="M105 9.33301C103.712 9.33301 102.667 10.3759 102.667 11.6663C102.667 12.9566 103.712 13.9998 105 13.9998C110.518 13.9998 116.666 26.4573 116.666 44.333C116.666 62.2087 110.518 74.6665 105 74.6665C103.712 74.6665 102.667 75.7094 102.667 76.9998C102.667 78.2901 103.712 79.333 105 79.333C114.312 79.333 121.333 64.2877 121.333 44.333C121.333 24.3784 114.312 9.33301 105 9.33301Z" fill="black"/>
<path d="M86.3337 18.666C85.0458 18.666 84.0005 19.7089 84.0005 20.9993C84.0005 22.2896 85.0458 23.3325 86.3337 23.3325C92.657 23.3325 98.0005 32.9482 98.0005 44.3325C98.0005 55.7168 92.6572 65.3325 86.3337 65.3325C85.0458 65.3325 84.0005 66.3754 84.0005 67.6657C84.0005 68.9561 85.0458 69.999 86.3337 69.999C95.492 69.999 102.667 58.7243 102.667 44.3322C102.667 29.9401 95.4922 18.666 86.3337 18.666Z" fill="black"/>
</g>
<defs>
<clipPath id="clip0_473_35">
<rect width="140" height="140" fill="white"/>
</clipPath>
</defs>
</svg>
