<svg width="140" height="140" viewBox="0 0 140 140" fill="none" xmlns="http://www.w3.org/2000/svg">
<path d="M40.8333 105H36.1667C29.6327 105 26.3657 105 23.8701 103.728C21.6749 102.61 19.8901 100.825 18.7716 98.63C17.5 96.1345 17.5 92.8673 17.5 86.3333V59.5C17.5 52.9661 17.5 49.6991 18.7716 47.2035C19.8901 45.0082 21.6749 43.2234 23.8701 42.1049C26.3657 40.8333 29.6327 40.8333 36.1667 40.8333H40.8333M40.8333 40.8333V31.5V26.8333C40.8333 23.5664 40.8333 21.9329 41.4691 20.6851C42.0284 19.5875 42.9208 18.6951 44.0184 18.1358C45.2662 17.5 46.8997 17.5 50.1667 17.5H89.8333C93.1006 17.5 94.7339 17.5 95.9817 18.1358C97.0795 18.6951 97.9714 19.5875 98.5308 20.6851C99.1667 21.9329 99.1667 23.5664 99.1667 26.8333V31.5V40.8333M40.8333 40.8333H99.1667M99.1667 105H103.833C110.367 105 113.635 105 116.13 103.728C118.325 102.61 120.11 100.825 121.228 98.63C122.5 96.1345 122.5 92.8673 122.5 86.3333V59.5C122.5 52.966 122.5 49.6991 121.228 47.2035C120.11 45.0082 118.325 43.2234 116.13 42.1049C113.635 40.8333 110.367 40.8333 103.833 40.8333H99.1667M40.8333 64.1667H40.8917M50.1667 122.5H89.8333C93.1006 122.5 94.7339 122.5 95.9817 121.864C97.0795 121.305 97.9714 120.413 98.5308 119.315C99.1667 118.067 99.1667 116.434 99.1667 113.167V96.8333C99.1667 93.5661 99.1667 91.9327 98.5308 90.685C97.9714 89.5872 97.0795 88.6953 95.9817 88.1358C94.7339 87.5 93.1006 87.5 89.8333 87.5H50.1667C46.8997 87.5 45.2662 87.5 44.0184 88.1358C42.9208 88.6953 42.0284 89.5872 41.4691 90.685C40.8333 91.9327 40.8333 93.5661 40.8333 96.8333V113.167C40.8333 116.434 40.8333 118.067 41.4691 119.315C42.0284 120.413 42.9208 121.305 44.0184 121.864C45.2662 122.5 46.8997 122.5 50.1667 122.5Z" stroke="black" stroke-width="11.6667" stroke-linecap="round" stroke-linejoin="round"/>
</svg>
