<svg width="144" height="144" viewBox="0 0 144 144" fill="none" xmlns="http://www.w3.org/2000/svg">
<path d="M4.5 125.595H139.5C140.693 125.595 141.838 125.121 142.682 124.277C143.526 123.433 144 122.289 144 121.095V22.9053C144 21.7118 143.526 20.5672 142.682 19.7233C141.838 18.8794 140.693 18.4053 139.5 18.4053H4.5C3.30653 18.4053 2.16193 18.8794 1.31802 19.7233C0.474106 20.5672 0 21.7118 0 22.9053L0 121.095C0 122.289 0.474106 123.433 1.31802 124.277C2.16193 125.121 3.30653 125.595 4.5 125.595ZM119.475 27.4053H128.88V116.595H119.475V27.4053ZM94.905 27.4053H110.475V116.595H94.905V27.4053ZM76.5 27.4053H85.905V116.595H76.5V27.4053ZM64.215 27.4053H67.5V116.595H64.215V27.4053ZM27.405 27.4053H55.215V116.595H27.405V27.4053ZM9 27.4053H18.405V116.595H9V27.4053Z" fill="black"/>
</svg>
