<svg width="144" height="140" viewBox="0 0 144 140" fill="none" xmlns="http://www.w3.org/2000/svg">
<g clip-path="url(#clip0_473_18)">
<path d="M71.9999 0C69.9726 0 68.3281 1.59657 68.3281 3.56987V31.3525H47.839L36.5054 50.6136V140H107.494V50.1987L96.1346 31.3525H75.6714V3.56987C75.6714 1.59657 74.0272 0 71.9999 0ZM71.9999 61.8774C74.0272 61.8774 75.6718 60.2809 75.6718 58.3076V51.2629C78.3206 52.5736 80.159 55.2232 80.159 58.3076C80.159 62.679 76.4993 66.2397 72.0003 66.2397C67.5013 66.2397 63.8416 62.679 63.8416 58.3076C63.8416 55.2232 65.6801 52.574 68.3284 51.2629V58.3076C68.3281 60.2782 69.9726 61.8774 71.9999 61.8774ZM91.9272 38.4922L100.151 52.1373V132.858H43.8491V52.5125L52.0989 38.4922H68.3281V43.6808C61.5497 45.2903 56.4975 51.227 56.4975 58.3076C56.4975 66.6183 63.4513 73.3794 71.9999 73.3794C80.5481 73.3794 87.5024 66.6183 87.5024 58.3076C87.5024 51.227 82.4514 45.2903 75.6714 43.6808V38.4922H91.9272Z" fill="black"/>
</g>
<defs>
<clipPath id="clip0_473_18">
<rect width="144" height="140" fill="white"/>
</clipPath>
</defs>
</svg>
