<svg width="144" height="140" viewBox="0 0 144 140" fill="none" xmlns="http://www.w3.org/2000/svg">
<g clip-path="url(#clip0_16911_15239)">
<mask id="mask0_16911_15239" style="mask-type:luminance" maskUnits="userSpaceOnUse" x="0" y="0" width="144" height="140">
<path d="M0 0H144V140H0V0Z" fill="white"/>
</mask>
<g mask="url(#mask0_16911_15239)">
<path d="M1.71894 58.1826L21.2706 52.8186L9.49436 38.2312C9.06573 37.7013 8.89783 37.0166 9.03874 36.3598C9.17768 35.6992 9.60237 35.1351 10.2093 34.8089L56.9699 9.66684C57.3203 9.47953 57.7158 9.37891 58.1115 9.37891C58.8408 9.37891 59.5161 9.69938 59.9638 10.2591L71.9991 25.1587L84.0343 10.2591C84.486 9.69938 85.1613 9.38109 85.8886 9.38109C86.2863 9.38109 86.68 9.4798 87.0279 9.66711L133.793 34.8091C134.398 35.1354 134.825 35.6995 134.962 36.3601C135.103 37.021 134.935 37.7057 134.506 38.2315L122.73 52.8169L142.278 58.1787C143.206 58.4325 143.875 59.194 143.985 60.1245C144.093 61.0509 143.62 61.9415 142.781 62.3927L120.362 74.4461V103.601C120.362 104.431 119.896 105.2 119.144 105.603L73.1407 130.338C72.7947 130.526 72.401 130.624 72.0013 130.624C71.6014 130.624 71.2057 130.526 70.8597 130.338L24.8568 105.607C24.1047 105.202 23.6364 104.435 23.6364 103.601V74.4458L1.21943 62.3924C0.378212 61.9412 -0.0939974 61.0509 0.0156901 60.1243C0.125378 59.1938 0.794744 58.4325 1.71894 58.1826ZM57.3949 15.1175L15.5108 37.6392L27.4426 52.412L69.3244 29.8903L57.3949 15.1175ZM128.49 37.6392L86.6055 15.1175L74.6757 29.8903L116.56 52.4098L128.49 37.6392ZM134.45 61.1961L117.24 56.4747L76.6175 78.3114L93.8322 83.035L134.45 61.1961ZM73.7684 124.323L115.251 102.021V75.451L94.2732 86.7289L73.7684 81.1029V124.323ZM71.9991 76.8649L113.363 54.6254L71.9991 32.384L30.6331 54.6254L71.9991 76.8649ZM28.7498 102.021L70.2297 124.323V81.1029L49.7272 86.7289L28.7498 75.451V102.021ZM50.1684 83.0348L67.3812 78.3111L26.7631 56.4744L9.54838 61.1959L50.1684 83.0348Z" fill="white"/>
</g>
</g>
<defs>
<clipPath id="clip0_16911_15239">
<rect width="144" height="140" fill="white"/>
</clipPath>
</defs>
</svg>
