<svg width="144" height="140" viewBox="0 0 144 140" fill="none" xmlns="http://www.w3.org/2000/svg">
<g clip-path="url(#clip0_472_15)">
<path d="M1.71901 58.1826L21.2707 52.8186L9.49444 38.2312C9.06581 37.7013 8.89791 37.0166 9.03882 36.3598C9.17776 35.6992 9.60245 35.1351 10.2094 34.8089L56.97 9.66684C57.3204 9.47953 57.7159 9.37891 58.1116 9.37891C58.8409 9.37891 59.5162 9.69938 59.9639 10.2591L71.9992 25.1587L84.0344 10.2591C84.4861 9.69938 85.1614 9.38109 85.8887 9.38109C86.2864 9.38109 86.6801 9.4798 87.028 9.66711L133.793 34.8091C134.398 35.1354 134.825 35.6995 134.962 36.3601C135.103 37.021 134.935 37.7057 134.506 38.2315L122.73 52.8169L142.278 58.1787C143.206 58.4325 143.875 59.194 143.985 60.1245C144.093 61.0509 143.62 61.9415 142.781 62.3927L120.362 74.4461V103.601C120.362 104.431 119.896 105.2 119.144 105.603L73.1408 130.338C72.7948 130.526 72.4011 130.624 72.0014 130.624C71.6015 130.624 71.2058 130.526 70.8598 130.338L24.8569 105.607C24.1048 105.202 23.6365 104.435 23.6365 103.601V74.4458L1.21951 62.3924C0.378287 61.9412 -0.0939224 61.0509 0.0157651 60.1243C0.125453 59.1938 0.794819 58.4325 1.71901 58.1826ZM57.395 15.1175L15.5109 37.6392L27.4427 52.412L69.3245 29.8903L57.395 15.1175ZM128.49 37.6392L86.6056 15.1175L74.6758 29.8903L116.56 52.4098L128.49 37.6392ZM134.45 61.1961L117.24 56.4747L76.6176 78.3114L93.8323 83.035L134.45 61.1961ZM73.7685 124.323L115.251 102.021V75.451L94.2733 86.7289L73.7685 81.1029V124.323ZM71.9992 76.8649L113.363 54.6254L71.9992 32.384L30.6332 54.6254L71.9992 76.8649ZM28.7499 102.021L70.2298 124.323V81.1029L49.7273 86.7289L28.7499 75.451V102.021ZM50.1685 83.0348L67.3813 78.3111L26.7632 56.4744L9.54845 61.1959L50.1685 83.0348Z" fill="black"/>
</g>
<defs>
<clipPath id="clip0_472_15">
<rect width="144" height="140" fill="white" transform="matrix(-1 0 0 1 144 0)"/>
</clipPath>
</defs>
</svg>
