<svg width="144" height="144" viewBox="0 0 144 144" fill="none" xmlns="http://www.w3.org/2000/svg">
<path d="M131.807 78.63C131.515 78.3144 131.218 78.0056 130.918 77.7002V44.3867C130.918 35.7717 123.909 28.7627 115.294 28.7627H0V99.3452H64.0738C65.1153 102.972 65.6741 106.868 65.6741 110.958V115.235H144V110.958C144 98.6125 139.67 87.1319 131.807 78.63ZM8.55478 90.7904V37.3175H115.294C119.192 37.3175 122.363 40.4888 122.363 44.3867V70.9848C119.769 69.4472 117.015 68.1984 114.138 67.2498V53.2956H16.7802V73.6243H30.6037C43.5142 73.6243 54.3724 80.3178 60.4471 90.7901H8.55478V90.7904ZM105.583 61.8506V65.3719H105.583C103.872 65.1736 102.135 65.0698 100.375 65.0698H30.6039H25.3353V61.8506H105.583ZM74.054 106.68C73.172 95.9769 68.9828 86.1414 62.0359 78.6303C60.3281 76.7836 58.4834 75.1124 56.5206 73.6246H100.375C119.006 73.6246 133.367 87.56 135.238 106.68H74.054Z" fill="black"/>
</svg>
