<svg width="140" height="140" viewBox="0 0 140 140" fill="none" xmlns="http://www.w3.org/2000/svg">
<path fill-rule="evenodd" clip-rule="evenodd" d="M58.7147 18.7166C35.1436 23.8799 17.5002 44.8799 17.5002 70.0007C17.5002 98.9956 41.0052 122.501 70.0002 122.501C95.121 122.501 116.121 104.857 121.284 81.2861C117.076 82.3913 112.7 82.9636 108.241 82.9636C79.9619 82.9636 57.0372 60.039 57.0372 31.7599C57.0372 27.3009 57.6095 22.9247 58.7147 18.7166ZM70.3872 20.3039C69.2798 23.9705 68.7039 27.8204 68.7039 31.7599C68.7039 53.5956 86.4052 71.297 108.241 71.297C112.18 71.297 116.03 70.721 119.697 69.6136L70.3872 20.3039ZM70.0002 134.167C34.5619 134.167 5.8335 105.439 5.8335 70.0007C5.8335 34.5624 34.5619 5.83398 70.0002 5.83398H72.4164L134.167 67.5844V70.0007C134.167 105.439 105.438 134.167 70.0002 134.167Z" fill="white"/>
</svg>
