<svg width="140" height="140" viewBox="0 0 140 140" fill="none" xmlns="http://www.w3.org/2000/svg">
<path fill-rule="evenodd" clip-rule="evenodd" d="M58.7147 18.7156C35.1436 23.8789 17.5002 44.8789 17.5002 69.9997C17.5002 98.9946 41.0052 122.5 70.0002 122.5C95.121 122.5 116.121 104.856 121.284 81.2851C117.076 82.3903 112.7 82.9626 108.241 82.9626C79.9619 82.9626 57.0372 60.038 57.0372 31.7589C57.0372 27.2999 57.6095 22.9237 58.7147 18.7156ZM70.3872 20.3029C69.2798 23.9695 68.7039 27.8194 68.7039 31.7589C68.7039 53.5946 86.4052 71.296 108.241 71.296C112.18 71.296 116.03 70.72 119.697 69.6126L70.3872 20.3029ZM70.0002 134.166C34.5619 134.166 5.8335 105.438 5.8335 69.9997C5.8335 34.5614 34.5619 5.83301 70.0002 5.83301H72.4164L134.167 67.5834V69.9997C134.167 105.438 105.438 134.166 70.0002 134.166Z" fill="black"/>
</svg>
